<?xml version="1.0" standalone="no"?>
<!DOCTYPE svg PUBLIC "-//W3C//DTD SVG 20010904//EN"
 "http://www.w3.org/TR/2001/REC-SVG-20010904/DTD/svg10.dtd">
<svg version="1.0" xmlns="http://www.w3.org/2000/svg"
 width="144.000000pt" height="134.000000pt" viewBox="0 0 144.000000 134.000000"
 preserveAspectRatio="xMidYMid meet">

<g transform="translate(0.000000,134.000000) scale(0.100000,-0.100000)"
fill="#000000" stroke="none">
<path d="M662 1119 c-21 -14 -30 -25 -24 -33 39 -48 102 -140 102 -146 0 -4
-36 -31 -81 -59 l-80 -51 18 -30 c9 -17 21 -30 25 -30 13 0 228 142 228 151 0
7 -149 219 -154 219 0 0 -16 -10 -34 -21z"/>
<path d="M670 754 c-63 -41 -114 -79 -113 -84 6 -20 147 -210 157 -210 6 0 22
9 36 20 l25 19 -21 28 c-11 15 -37 51 -58 80 l-36 51 84 53 c88 55 89 57 54
101 -12 16 -23 11 -128 -58z"/>
<path d="M110 235 l0 -65 70 0 c63 0 70 2 70 19 0 11 -4 23 -10 26 -5 3 -10
-1 -10 -9 0 -12 -11 -16 -50 -16 l-50 0 0 45 0 45 50 0 c28 0 50 -4 50 -10 0
-5 5 -10 10 -10 6 0 10 9 10 20 0 18 -7 20 -70 20 l-70 0 0 -65z"/>
<path d="M324 287 c-3 -8 -4 -36 -2 -63 l3 -49 80 0 80 0 0 60 0 60 -78 3
c-59 2 -79 0 -83 -11z m136 -52 l0 -45 -55 0 -55 0 0 45 0 45 55 0 55 0 0 -45z"/>
<path d="M560 235 c0 -51 3 -65 15 -65 9 0 15 9 15 25 0 18 5 25 18 25 10 0
29 -11 42 -25 13 -14 33 -25 44 -25 19 0 18 3 -9 25 -28 23 -29 24 -8 25 16 0
25 8 29 25 12 47 1 55 -76 55 l-70 0 0 -65z m120 25 c0 -17 -7 -20 -45 -20
-38 0 -45 3 -45 20 0 17 7 20 45 20 38 0 45 -3 45 -20z"/>
<path d="M740 290 c0 -5 14 -10 30 -10 28 0 30 -3 31 -37 1 -21 1 -46 0 -55
-1 -10 4 -18 13 -18 13 0 16 12 16 55 0 54 0 55 29 55 17 0 33 5 36 10 4 6
-23 10 -74 10 -47 0 -81 -4 -81 -10z"/>
<path d="M940 235 l0 -65 70 0 c40 0 70 4 70 10 0 6 -25 10 -55 10 -48 0 -55
2 -55 20 0 16 7 20 30 20 17 0 30 5 30 10 0 6 -13 10 -30 10 -20 0 -30 5 -30
15 0 11 12 15 49 15 28 0 53 5 56 10 4 6 -20 10 -64 10 l-71 0 0 -65z"/>
<path d="M1140 230 c0 -56 3 -70 15 -70 11 0 15 12 15 51 l0 51 54 -46 c30
-25 59 -46 65 -46 7 0 11 25 11 65 0 37 -4 65 -10 65 -5 0 -10 -20 -10 -45 0
-25 -3 -45 -6 -45 -3 0 -30 20 -58 45 -29 25 -58 45 -65 45 -7 0 -11 -24 -11
-70z"/>
<path d="M780 135 c-7 -9 -11 -17 -9 -20 3 -2 10 5 17 15 14 24 10 26 -8 5z"/>
<path d="M848 128 c7 -28 19 -30 24 -5 3 16 0 23 -12 23 -11 0 -15 -6 -12 -18z"/>
<path d="M972 125 c0 -16 2 -22 5 -12 2 9 2 23 0 30 -3 6 -5 -1 -5 -18z"/>
<path d="M1010 140 c0 -6 5 -8 10 -5 6 3 10 -1 10 -10 0 -9 -4 -13 -10 -10 -5
3 -10 1 -10 -4 0 -6 7 -11 16 -11 10 0 14 7 12 22 -3 22 -28 39 -28 18z"/>
<path d="M1144 135 c-4 -8 -4 -22 0 -30 6 -17 26 -20 26 -4 0 5 -4 7 -10 4 -5
-3 -10 3 -10 15 0 13 4 19 12 14 7 -4 8 -3 4 4 -10 16 -15 15 -22 -3z"/>
<path d="M1184 135 c-8 -20 2 -45 18 -44 10 0 10 2 1 6 -7 2 -13 13 -13 23 0
10 6 21 13 23 9 4 9 6 -1 6 -7 1 -15 -6 -18 -14z"/>
<path d="M823 121 c1 -14 9 -26 17 -28 10 -3 11 -2 4 4 -7 4 -14 17 -17 28 -5
16 -5 15 -4 -4z"/>
<path d="M892 120 c0 -14 2 -19 5 -12 2 6 2 18 0 25 -3 6 -5 1 -5 -13z"/>
<path d="M1053 121 c1 -14 9 -26 17 -28 10 -3 11 -2 4 4 -7 4 -14 17 -17 28
-5 16 -5 15 -4 -4z"/>
<path d="M926 103 c-6 -14 -5 -15 5 -6 7 7 10 15 7 18 -3 3 -9 -2 -12 -12z"/>
<path d="M1242 104 c-7 -8 -8 -14 -3 -14 10 0 25 19 20 25 -2 1 -10 -3 -17
-11z"/>
<path d="M1090 105 c0 -10 29 -24 34 -17 3 6 -3 12 -14 15 -11 3 -20 4 -20 2z"/>
</g>
</svg>
